<mxfile host="app.diagrams.net" modified="2023-08-13T15:34:25.028Z" agent="Mozilla/5.0 (Windows NT 10.0; Win64; x64; rv:109.0) Gecko/20100101 Firefox/116.0" etag="ViSI6z4WQNu5g8ggL-ji" version="21.6.8" type="device">
  <diagram id="C5RBs43oDa-KdzZeNtuy" name="Page-1">
    <mxGraphModel dx="520" dy="529" grid="1" gridSize="10" guides="1" tooltips="1" connect="1" arrows="1" fold="1" page="1" pageScale="1" pageWidth="827" pageHeight="1169" math="0" shadow="0">
      <root>
        <mxCell id="WIyWlLk6GJQsqaUBKTNV-0" />
        <mxCell id="WIyWlLk6GJQsqaUBKTNV-1" parent="WIyWlLk6GJQsqaUBKTNV-0" />
        <mxCell id="UmUF-Dk6hSZ2KMNe_zcG-0" value="Start" style="rounded=1;whiteSpace=wrap;html=1;" vertex="1" parent="WIyWlLk6GJQsqaUBKTNV-1">
          <mxGeometry x="380" y="20" width="94" height="40" as="geometry" />
        </mxCell>
        <mxCell id="UmUF-Dk6hSZ2KMNe_zcG-1" value="int n" style="rounded=0;whiteSpace=wrap;html=1;" vertex="1" parent="WIyWlLk6GJQsqaUBKTNV-1">
          <mxGeometry x="377" y="90" width="100" height="30" as="geometry" />
        </mxCell>
        <mxCell id="UmUF-Dk6hSZ2KMNe_zcG-2" value="&quot;Valor maximo para la serie&quot;" style="shape=parallelogram;perimeter=parallelogramPerimeter;whiteSpace=wrap;html=1;fixedSize=1;" vertex="1" parent="WIyWlLk6GJQsqaUBKTNV-1">
          <mxGeometry x="320" y="150" width="210" height="30" as="geometry" />
        </mxCell>
        <mxCell id="UmUF-Dk6hSZ2KMNe_zcG-3" value="&lt;div&gt;int a = 0;&lt;/div&gt;&lt;div&gt;in b = 0;&lt;/div&gt;&lt;div&gt;string SerieFibonacci = &quot;Serie&quot; + a;&lt;br&gt;&lt;/div&gt;" style="rounded=0;whiteSpace=wrap;html=1;" vertex="1" parent="WIyWlLk6GJQsqaUBKTNV-1">
          <mxGeometry x="300" y="200" width="250" height="60" as="geometry" />
        </mxCell>
        <mxCell id="UmUF-Dk6hSZ2KMNe_zcG-5" value="" style="ellipse;whiteSpace=wrap;html=1;aspect=fixed;" vertex="1" parent="WIyWlLk6GJQsqaUBKTNV-1">
          <mxGeometry x="407" y="290" width="40" height="40" as="geometry" />
        </mxCell>
        <mxCell id="UmUF-Dk6hSZ2KMNe_zcG-6" value="b &amp;lt;= n" style="rhombus;whiteSpace=wrap;html=1;" vertex="1" parent="WIyWlLk6GJQsqaUBKTNV-1">
          <mxGeometry x="386.5" y="360" width="80" height="80" as="geometry" />
        </mxCell>
        <mxCell id="UmUF-Dk6hSZ2KMNe_zcG-7" value="&lt;div&gt;serieFibonacci += &quot;, &quot; + b;&lt;/div&gt;&lt;div&gt;int temp = a + b;&lt;/div&gt;&lt;div&gt;a = b;&lt;/div&gt;&lt;div&gt;b = temp;&lt;br&gt;&lt;/div&gt;" style="rounded=0;whiteSpace=wrap;html=1;" vertex="1" parent="WIyWlLk6GJQsqaUBKTNV-1">
          <mxGeometry x="560" y="360" width="150" height="80" as="geometry" />
        </mxCell>
        <mxCell id="UmUF-Dk6hSZ2KMNe_zcG-8" value="textbox2.Text = SerieFibonacci;" style="rounded=0;whiteSpace=wrap;html=1;" vertex="1" parent="WIyWlLk6GJQsqaUBKTNV-1">
          <mxGeometry x="350" y="480" width="180" height="40" as="geometry" />
        </mxCell>
        <mxCell id="UmUF-Dk6hSZ2KMNe_zcG-9" value="End" style="rounded=1;whiteSpace=wrap;html=1;" vertex="1" parent="WIyWlLk6GJQsqaUBKTNV-1">
          <mxGeometry x="377" y="564.5" width="114" height="40" as="geometry" />
        </mxCell>
        <mxCell id="UmUF-Dk6hSZ2KMNe_zcG-10" value="" style="endArrow=classic;html=1;rounded=0;exitX=0.5;exitY=1;exitDx=0;exitDy=0;entryX=0.5;entryY=0;entryDx=0;entryDy=0;" edge="1" parent="WIyWlLk6GJQsqaUBKTNV-1" source="UmUF-Dk6hSZ2KMNe_zcG-0" target="UmUF-Dk6hSZ2KMNe_zcG-1">
          <mxGeometry width="50" height="50" relative="1" as="geometry">
            <mxPoint x="550" y="80" as="sourcePoint" />
            <mxPoint x="600" y="30" as="targetPoint" />
          </mxGeometry>
        </mxCell>
        <mxCell id="UmUF-Dk6hSZ2KMNe_zcG-12" value="" style="endArrow=classic;html=1;rounded=0;exitX=0.5;exitY=1;exitDx=0;exitDy=0;entryX=0.5;entryY=0;entryDx=0;entryDy=0;" edge="1" parent="WIyWlLk6GJQsqaUBKTNV-1" source="UmUF-Dk6hSZ2KMNe_zcG-1" target="UmUF-Dk6hSZ2KMNe_zcG-2">
          <mxGeometry width="50" height="50" relative="1" as="geometry">
            <mxPoint x="610" y="170" as="sourcePoint" />
            <mxPoint x="660" y="120" as="targetPoint" />
          </mxGeometry>
        </mxCell>
        <mxCell id="UmUF-Dk6hSZ2KMNe_zcG-13" value="" style="endArrow=classic;html=1;rounded=0;exitX=0.5;exitY=1;exitDx=0;exitDy=0;entryX=0.5;entryY=0;entryDx=0;entryDy=0;" edge="1" parent="WIyWlLk6GJQsqaUBKTNV-1" source="UmUF-Dk6hSZ2KMNe_zcG-2" target="UmUF-Dk6hSZ2KMNe_zcG-3">
          <mxGeometry width="50" height="50" relative="1" as="geometry">
            <mxPoint x="560" y="200" as="sourcePoint" />
            <mxPoint x="520" y="180" as="targetPoint" />
          </mxGeometry>
        </mxCell>
        <mxCell id="UmUF-Dk6hSZ2KMNe_zcG-14" value="" style="endArrow=classic;html=1;rounded=0;exitX=0.486;exitY=1;exitDx=0;exitDy=0;exitPerimeter=0;entryX=0.5;entryY=0;entryDx=0;entryDy=0;" edge="1" parent="WIyWlLk6GJQsqaUBKTNV-1" source="UmUF-Dk6hSZ2KMNe_zcG-3" target="UmUF-Dk6hSZ2KMNe_zcG-5">
          <mxGeometry width="50" height="50" relative="1" as="geometry">
            <mxPoint x="500" y="300" as="sourcePoint" />
            <mxPoint x="500" y="270" as="targetPoint" />
          </mxGeometry>
        </mxCell>
        <mxCell id="UmUF-Dk6hSZ2KMNe_zcG-15" value="" style="endArrow=classic;html=1;rounded=0;exitX=0.5;exitY=1;exitDx=0;exitDy=0;entryX=0.5;entryY=0;entryDx=0;entryDy=0;" edge="1" parent="WIyWlLk6GJQsqaUBKTNV-1" source="UmUF-Dk6hSZ2KMNe_zcG-5" target="UmUF-Dk6hSZ2KMNe_zcG-6">
          <mxGeometry width="50" height="50" relative="1" as="geometry">
            <mxPoint x="540" y="300" as="sourcePoint" />
            <mxPoint x="590" y="250" as="targetPoint" />
          </mxGeometry>
        </mxCell>
        <mxCell id="UmUF-Dk6hSZ2KMNe_zcG-16" value="" style="endArrow=classic;html=1;rounded=0;exitX=0.5;exitY=1;exitDx=0;exitDy=0;entryX=0.439;entryY=-0.1;entryDx=0;entryDy=0;entryPerimeter=0;" edge="1" parent="WIyWlLk6GJQsqaUBKTNV-1" source="UmUF-Dk6hSZ2KMNe_zcG-6" target="UmUF-Dk6hSZ2KMNe_zcG-8">
          <mxGeometry width="50" height="50" relative="1" as="geometry">
            <mxPoint x="520" y="500" as="sourcePoint" />
            <mxPoint x="570" y="450" as="targetPoint" />
          </mxGeometry>
        </mxCell>
        <mxCell id="UmUF-Dk6hSZ2KMNe_zcG-17" value="" style="endArrow=classic;html=1;rounded=0;exitX=1;exitY=0.5;exitDx=0;exitDy=0;entryX=0;entryY=0.5;entryDx=0;entryDy=0;" edge="1" parent="WIyWlLk6GJQsqaUBKTNV-1" source="UmUF-Dk6hSZ2KMNe_zcG-6" target="UmUF-Dk6hSZ2KMNe_zcG-7">
          <mxGeometry width="50" height="50" relative="1" as="geometry">
            <mxPoint x="570" y="500" as="sourcePoint" />
            <mxPoint x="540" y="440" as="targetPoint" />
          </mxGeometry>
        </mxCell>
        <mxCell id="UmUF-Dk6hSZ2KMNe_zcG-18" value="" style="endArrow=classic;html=1;rounded=0;exitX=0.75;exitY=0;exitDx=0;exitDy=0;entryX=1;entryY=0.5;entryDx=0;entryDy=0;" edge="1" parent="WIyWlLk6GJQsqaUBKTNV-1" source="UmUF-Dk6hSZ2KMNe_zcG-7" target="UmUF-Dk6hSZ2KMNe_zcG-5">
          <mxGeometry width="50" height="50" relative="1" as="geometry">
            <mxPoint x="600" y="310" as="sourcePoint" />
            <mxPoint x="650" y="260" as="targetPoint" />
          </mxGeometry>
        </mxCell>
        <mxCell id="UmUF-Dk6hSZ2KMNe_zcG-20" value="" style="endArrow=classic;html=1;rounded=0;exitX=0.439;exitY=1.1;exitDx=0;exitDy=0;exitPerimeter=0;entryX=0.439;entryY=-0.137;entryDx=0;entryDy=0;entryPerimeter=0;" edge="1" parent="WIyWlLk6GJQsqaUBKTNV-1" source="UmUF-Dk6hSZ2KMNe_zcG-8" target="UmUF-Dk6hSZ2KMNe_zcG-9">
          <mxGeometry width="50" height="50" relative="1" as="geometry">
            <mxPoint x="540" y="550" as="sourcePoint" />
            <mxPoint x="590" y="500" as="targetPoint" />
          </mxGeometry>
        </mxCell>
      </root>
    </mxGraphModel>
  </diagram>
</mxfile>
